<svg version="1.1" xmlns="http://www.w3.org/2000/svg" xmlns:xlink="http://www.w3.org/1999/xlink" width="1003" height="571"><defs/><g><text fill="#eeeeee" stroke="none" font-family="Arial" font-size="24px" font-style="normal" font-weight="normal" text-decoration="none" x="0" y="0">UNREGISTERED</text><text fill="#eeeeee" stroke="none" font-family="Arial" font-size="24px" font-style="normal" font-weight="normal" text-decoration="none" x="0" y="30">UNREGISTERED</text><text fill="#eeeeee" stroke="none" font-family="Arial" font-size="24px" font-style="normal" font-weight="normal" text-decoration="none" x="0" y="60">UNREGISTERED</text><text fill="#eeeeee" stroke="none" font-family="Arial" font-size="24px" font-style="normal" font-weight="normal" text-decoration="none" x="0" y="90">UNREGISTERED</text><text fill="#eeeeee" stroke="none" font-family="Arial" font-size="24px" font-style="normal" font-weight="normal" text-decoration="none" x="0" y="120">UNREGISTERED</text><text fill="#eeeeee" stroke="none" font-family="Arial" font-size="24px" font-style="normal" font-weight="normal" text-decoration="none" x="0" y="150">UNREGISTERED</text><text fill="#eeeeee" stroke="none" font-family="Arial" font-size="24px" font-style="normal" font-weight="normal" text-decoration="none" x="0" y="180">UNREGISTERED</text><text fill="#eeeeee" stroke="none" font-family="Arial" font-size="24px" font-style="normal" font-weight="normal" text-decoration="none" x="0" y="210">UNREGISTERED</text><text fill="#eeeeee" stroke="none" font-family="Arial" font-size="24px" font-style="normal" font-weight="normal" text-decoration="none" x="0" y="240">UNREGISTERED</text><text fill="#eeeeee" stroke="none" font-family="Arial" font-size="24px" font-style="normal" font-weight="normal" text-decoration="none" x="0" y="270">UNREGISTERED</text><text fill="#eeeeee" stroke="none" font-family="Arial" font-size="24px" font-style="normal" font-weight="normal" text-decoration="none" x="0" y="300">UNREGISTERED</text><text fill="#eeeeee" stroke="none" font-family="Arial" font-size="24px" font-style="normal" font-weight="normal" text-decoration="none" x="0" y="330">UNREGISTERED</text><text fill="#eeeeee" stroke="none" font-family="Arial" font-size="24px" font-style="normal" font-weight="normal" text-decoration="none" x="0" y="360">UNREGISTERED</text><text fill="#eeeeee" stroke="none" font-family="Arial" font-size="24px" font-style="normal" font-weight="normal" text-decoration="none" x="0" y="390">UNREGISTERED</text><text fill="#eeeeee" stroke="none" font-family="Arial" font-size="24px" font-style="normal" font-weight="normal" text-decoration="none" x="0" y="420">UNREGISTERED</text><text fill="#eeeeee" stroke="none" font-family="Arial" font-size="24px" font-style="normal" font-weight="normal" text-decoration="none" x="0" y="450">UNREGISTERED</text><text fill="#eeeeee" stroke="none" font-family="Arial" font-size="24px" font-style="normal" font-weight="normal" text-decoration="none" x="0" y="480">UNREGISTERED</text><text fill="#eeeeee" stroke="none" font-family="Arial" font-size="24px" font-style="normal" font-weight="normal" text-decoration="none" x="0" y="510">UNREGISTERED</text><text fill="#eeeeee" stroke="none" font-family="Arial" font-size="24px" font-style="normal" font-weight="normal" text-decoration="none" x="0" y="540">UNREGISTERED</text><text fill="#eeeeee" stroke="none" font-family="Arial" font-size="24px" font-style="normal" font-weight="normal" text-decoration="none" x="0" y="570">UNREGISTERED</text><text fill="#eeeeee" stroke="none" font-family="Arial" font-size="24px" font-style="normal" font-weight="normal" text-decoration="none" x="200" y="0">UNREGISTERED</text><text fill="#eeeeee" stroke="none" font-family="Arial" font-size="24px" font-style="normal" font-weight="normal" text-decoration="none" x="200" y="30">UNREGISTERED</text><text fill="#eeeeee" stroke="none" font-family="Arial" font-size="24px" font-style="normal" font-weight="normal" text-decoration="none" x="200" y="60">UNREGISTERED</text><text fill="#eeeeee" stroke="none" font-family="Arial" font-size="24px" font-style="normal" font-weight="normal" text-decoration="none" x="200" y="90">UNREGISTERED</text><text fill="#eeeeee" stroke="none" font-family="Arial" font-size="24px" font-style="normal" font-weight="normal" text-decoration="none" x="200" y="120">UNREGISTERED</text><text fill="#eeeeee" stroke="none" font-family="Arial" font-size="24px" font-style="normal" font-weight="normal" text-decoration="none" x="200" y="150">UNREGISTERED</text><text fill="#eeeeee" stroke="none" font-family="Arial" font-size="24px" font-style="normal" font-weight="normal" text-decoration="none" x="200" y="180">UNREGISTERED</text><text fill="#eeeeee" stroke="none" font-family="Arial" font-size="24px" font-style="normal" font-weight="normal" text-decoration="none" x="200" y="210">UNREGISTERED</text><text fill="#eeeeee" stroke="none" font-family="Arial" font-size="24px" font-style="normal" font-weight="normal" text-decoration="none" x="200" y="240">UNREGISTERED</text><text fill="#eeeeee" stroke="none" font-family="Arial" font-size="24px" font-style="normal" font-weight="normal" text-decoration="none" x="200" y="270">UNREGISTERED</text><text fill="#eeeeee" stroke="none" font-family="Arial" font-size="24px" font-style="normal" font-weight="normal" text-decoration="none" x="200" y="300">UNREGISTERED</text><text fill="#eeeeee" stroke="none" font-family="Arial" font-size="24px" font-style="normal" font-weight="normal" text-decoration="none" x="200" y="330">UNREGISTERED</text><text fill="#eeeeee" stroke="none" font-family="Arial" font-size="24px" font-style="normal" font-weight="normal" text-decoration="none" x="200" y="360">UNREGISTERED</text><text fill="#eeeeee" stroke="none" font-family="Arial" font-size="24px" font-style="normal" font-weight="normal" text-decoration="none" x="200" y="390">UNREGISTERED</text><text fill="#eeeeee" stroke="none" font-family="Arial" font-size="24px" font-style="normal" font-weight="normal" text-decoration="none" x="200" y="420">UNREGISTERED</text><text fill="#eeeeee" stroke="none" font-family="Arial" font-size="24px" font-style="normal" font-weight="normal" text-decoration="none" x="200" y="450">UNREGISTERED</text><text fill="#eeeeee" stroke="none" font-family="Arial" font-size="24px" font-style="normal" font-weight="normal" text-decoration="none" x="200" y="480">UNREGISTERED</text><text fill="#eeeeee" stroke="none" font-family="Arial" font-size="24px" font-style="normal" font-weight="normal" text-decoration="none" x="200" y="510">UNREGISTERED</text><text fill="#eeeeee" stroke="none" font-family="Arial" font-size="24px" font-style="normal" font-weight="normal" text-decoration="none" x="200" y="540">UNREGISTERED</text><text fill="#eeeeee" stroke="none" font-family="Arial" font-size="24px" font-style="normal" font-weight="normal" text-decoration="none" x="200" y="570">UNREGISTERED</text><text fill="#eeeeee" stroke="none" font-family="Arial" font-size="24px" font-style="normal" font-weight="normal" text-decoration="none" x="400" y="0">UNREGISTERED</text><text fill="#eeeeee" stroke="none" font-family="Arial" font-size="24px" font-style="normal" font-weight="normal" text-decoration="none" x="400" y="30">UNREGISTERED</text><text fill="#eeeeee" stroke="none" font-family="Arial" font-size="24px" font-style="normal" font-weight="normal" text-decoration="none" x="400" y="60">UNREGISTERED</text><text fill="#eeeeee" stroke="none" font-family="Arial" font-size="24px" font-style="normal" font-weight="normal" text-decoration="none" x="400" y="90">UNREGISTERED</text><text fill="#eeeeee" stroke="none" font-family="Arial" font-size="24px" font-style="normal" font-weight="normal" text-decoration="none" x="400" y="120">UNREGISTERED</text><text fill="#eeeeee" stroke="none" font-family="Arial" font-size="24px" font-style="normal" font-weight="normal" text-decoration="none" x="400" y="150">UNREGISTERED</text><text fill="#eeeeee" stroke="none" font-family="Arial" font-size="24px" font-style="normal" font-weight="normal" text-decoration="none" x="400" y="180">UNREGISTERED</text><text fill="#eeeeee" stroke="none" font-family="Arial" font-size="24px" font-style="normal" font-weight="normal" text-decoration="none" x="400" y="210">UNREGISTERED</text><text fill="#eeeeee" stroke="none" font-family="Arial" font-size="24px" font-style="normal" font-weight="normal" text-decoration="none" x="400" y="240">UNREGISTERED</text><text fill="#eeeeee" stroke="none" font-family="Arial" font-size="24px" font-style="normal" font-weight="normal" text-decoration="none" x="400" y="270">UNREGISTERED</text><text fill="#eeeeee" stroke="none" font-family="Arial" font-size="24px" font-style="normal" font-weight="normal" text-decoration="none" x="400" y="300">UNREGISTERED</text><text fill="#eeeeee" stroke="none" font-family="Arial" font-size="24px" font-style="normal" font-weight="normal" text-decoration="none" x="400" y="330">UNREGISTERED</text><text fill="#eeeeee" stroke="none" font-family="Arial" font-size="24px" font-style="normal" font-weight="normal" text-decoration="none" x="400" y="360">UNREGISTERED</text><text fill="#eeeeee" stroke="none" font-family="Arial" font-size="24px" font-style="normal" font-weight="normal" text-decoration="none" x="400" y="390">UNREGISTERED</text><text fill="#eeeeee" stroke="none" font-family="Arial" font-size="24px" font-style="normal" font-weight="normal" text-decoration="none" x="400" y="420">UNREGISTERED</text><text fill="#eeeeee" stroke="none" font-family="Arial" font-size="24px" font-style="normal" font-weight="normal" text-decoration="none" x="400" y="450">UNREGISTERED</text><text fill="#eeeeee" stroke="none" font-family="Arial" font-size="24px" font-style="normal" font-weight="normal" text-decoration="none" x="400" y="480">UNREGISTERED</text><text fill="#eeeeee" stroke="none" font-family="Arial" font-size="24px" font-style="normal" font-weight="normal" text-decoration="none" x="400" y="510">UNREGISTERED</text><text fill="#eeeeee" stroke="none" font-family="Arial" font-size="24px" font-style="normal" font-weight="normal" text-decoration="none" x="400" y="540">UNREGISTERED</text><text fill="#eeeeee" stroke="none" font-family="Arial" font-size="24px" font-style="normal" font-weight="normal" text-decoration="none" x="400" y="570">UNREGISTERED</text><text fill="#eeeeee" stroke="none" font-family="Arial" font-size="24px" font-style="normal" font-weight="normal" text-decoration="none" x="600" y="0">UNREGISTERED</text><text fill="#eeeeee" stroke="none" font-family="Arial" font-size="24px" font-style="normal" font-weight="normal" text-decoration="none" x="600" y="30">UNREGISTERED</text><text fill="#eeeeee" stroke="none" font-family="Arial" font-size="24px" font-style="normal" font-weight="normal" text-decoration="none" x="600" y="60">UNREGISTERED</text><text fill="#eeeeee" stroke="none" font-family="Arial" font-size="24px" font-style="normal" font-weight="normal" text-decoration="none" x="600" y="90">UNREGISTERED</text><text fill="#eeeeee" stroke="none" font-family="Arial" font-size="24px" font-style="normal" font-weight="normal" text-decoration="none" x="600" y="120">UNREGISTERED</text><text fill="#eeeeee" stroke="none" font-family="Arial" font-size="24px" font-style="normal" font-weight="normal" text-decoration="none" x="600" y="150">UNREGISTERED</text><text fill="#eeeeee" stroke="none" font-family="Arial" font-size="24px" font-style="normal" font-weight="normal" text-decoration="none" x="600" y="180">UNREGISTERED</text><text fill="#eeeeee" stroke="none" font-family="Arial" font-size="24px" font-style="normal" font-weight="normal" text-decoration="none" x="600" y="210">UNREGISTERED</text><text fill="#eeeeee" stroke="none" font-family="Arial" font-size="24px" font-style="normal" font-weight="normal" text-decoration="none" x="600" y="240">UNREGISTERED</text><text fill="#eeeeee" stroke="none" font-family="Arial" font-size="24px" font-style="normal" font-weight="normal" text-decoration="none" x="600" y="270">UNREGISTERED</text><text fill="#eeeeee" stroke="none" font-family="Arial" font-size="24px" font-style="normal" font-weight="normal" text-decoration="none" x="600" y="300">UNREGISTERED</text><text fill="#eeeeee" stroke="none" font-family="Arial" font-size="24px" font-style="normal" font-weight="normal" text-decoration="none" x="600" y="330">UNREGISTERED</text><text fill="#eeeeee" stroke="none" font-family="Arial" font-size="24px" font-style="normal" font-weight="normal" text-decoration="none" x="600" y="360">UNREGISTERED</text><text fill="#eeeeee" stroke="none" font-family="Arial" font-size="24px" font-style="normal" font-weight="normal" text-decoration="none" x="600" y="390">UNREGISTERED</text><text fill="#eeeeee" stroke="none" font-family="Arial" font-size="24px" font-style="normal" font-weight="normal" text-decoration="none" x="600" y="420">UNREGISTERED</text><text fill="#eeeeee" stroke="none" font-family="Arial" font-size="24px" font-style="normal" font-weight="normal" text-decoration="none" x="600" y="450">UNREGISTERED</text><text fill="#eeeeee" stroke="none" font-family="Arial" font-size="24px" font-style="normal" font-weight="normal" text-decoration="none" x="600" y="480">UNREGISTERED</text><text fill="#eeeeee" stroke="none" font-family="Arial" font-size="24px" font-style="normal" font-weight="normal" text-decoration="none" x="600" y="510">UNREGISTERED</text><text fill="#eeeeee" stroke="none" font-family="Arial" font-size="24px" font-style="normal" font-weight="normal" text-decoration="none" x="600" y="540">UNREGISTERED</text><text fill="#eeeeee" stroke="none" font-family="Arial" font-size="24px" font-style="normal" font-weight="normal" text-decoration="none" x="600" y="570">UNREGISTERED</text><text fill="#eeeeee" stroke="none" font-family="Arial" font-size="24px" font-style="normal" font-weight="normal" text-decoration="none" x="800" y="0">UNREGISTERED</text><text fill="#eeeeee" stroke="none" font-family="Arial" font-size="24px" font-style="normal" font-weight="normal" text-decoration="none" x="800" y="30">UNREGISTERED</text><text fill="#eeeeee" stroke="none" font-family="Arial" font-size="24px" font-style="normal" font-weight="normal" text-decoration="none" x="800" y="60">UNREGISTERED</text><text fill="#eeeeee" stroke="none" font-family="Arial" font-size="24px" font-style="normal" font-weight="normal" text-decoration="none" x="800" y="90">UNREGISTERED</text><text fill="#eeeeee" stroke="none" font-family="Arial" font-size="24px" font-style="normal" font-weight="normal" text-decoration="none" x="800" y="120">UNREGISTERED</text><text fill="#eeeeee" stroke="none" font-family="Arial" font-size="24px" font-style="normal" font-weight="normal" text-decoration="none" x="800" y="150">UNREGISTERED</text><text fill="#eeeeee" stroke="none" font-family="Arial" font-size="24px" font-style="normal" font-weight="normal" text-decoration="none" x="800" y="180">UNREGISTERED</text><text fill="#eeeeee" stroke="none" font-family="Arial" font-size="24px" font-style="normal" font-weight="normal" text-decoration="none" x="800" y="210">UNREGISTERED</text><text fill="#eeeeee" stroke="none" font-family="Arial" font-size="24px" font-style="normal" font-weight="normal" text-decoration="none" x="800" y="240">UNREGISTERED</text><text fill="#eeeeee" stroke="none" font-family="Arial" font-size="24px" font-style="normal" font-weight="normal" text-decoration="none" x="800" y="270">UNREGISTERED</text><text fill="#eeeeee" stroke="none" font-family="Arial" font-size="24px" font-style="normal" font-weight="normal" text-decoration="none" x="800" y="300">UNREGISTERED</text><text fill="#eeeeee" stroke="none" font-family="Arial" font-size="24px" font-style="normal" font-weight="normal" text-decoration="none" x="800" y="330">UNREGISTERED</text><text fill="#eeeeee" stroke="none" font-family="Arial" font-size="24px" font-style="normal" font-weight="normal" text-decoration="none" x="800" y="360">UNREGISTERED</text><text fill="#eeeeee" stroke="none" font-family="Arial" font-size="24px" font-style="normal" font-weight="normal" text-decoration="none" x="800" y="390">UNREGISTERED</text><text fill="#eeeeee" stroke="none" font-family="Arial" font-size="24px" font-style="normal" font-weight="normal" text-decoration="none" x="800" y="420">UNREGISTERED</text><text fill="#eeeeee" stroke="none" font-family="Arial" font-size="24px" font-style="normal" font-weight="normal" text-decoration="none" x="800" y="450">UNREGISTERED</text><text fill="#eeeeee" stroke="none" font-family="Arial" font-size="24px" font-style="normal" font-weight="normal" text-decoration="none" x="800" y="480">UNREGISTERED</text><text fill="#eeeeee" stroke="none" font-family="Arial" font-size="24px" font-style="normal" font-weight="normal" text-decoration="none" x="800" y="510">UNREGISTERED</text><text fill="#eeeeee" stroke="none" font-family="Arial" font-size="24px" font-style="normal" font-weight="normal" text-decoration="none" x="800" y="540">UNREGISTERED</text><text fill="#eeeeee" stroke="none" font-family="Arial" font-size="24px" font-style="normal" font-weight="normal" text-decoration="none" x="800" y="570">UNREGISTERED</text><text fill="#eeeeee" stroke="none" font-family="Arial" font-size="24px" font-style="normal" font-weight="normal" text-decoration="none" x="1000" y="0">UNREGISTERED</text><text fill="#eeeeee" stroke="none" font-family="Arial" font-size="24px" font-style="normal" font-weight="normal" text-decoration="none" x="1000" y="30">UNREGISTERED</text><text fill="#eeeeee" stroke="none" font-family="Arial" font-size="24px" font-style="normal" font-weight="normal" text-decoration="none" x="1000" y="60">UNREGISTERED</text><text fill="#eeeeee" stroke="none" font-family="Arial" font-size="24px" font-style="normal" font-weight="normal" text-decoration="none" x="1000" y="90">UNREGISTERED</text><text fill="#eeeeee" stroke="none" font-family="Arial" font-size="24px" font-style="normal" font-weight="normal" text-decoration="none" x="1000" y="120">UNREGISTERED</text><text fill="#eeeeee" stroke="none" font-family="Arial" font-size="24px" font-style="normal" font-weight="normal" text-decoration="none" x="1000" y="150">UNREGISTERED</text><text fill="#eeeeee" stroke="none" font-family="Arial" font-size="24px" font-style="normal" font-weight="normal" text-decoration="none" x="1000" y="180">UNREGISTERED</text><text fill="#eeeeee" stroke="none" font-family="Arial" font-size="24px" font-style="normal" font-weight="normal" text-decoration="none" x="1000" y="210">UNREGISTERED</text><text fill="#eeeeee" stroke="none" font-family="Arial" font-size="24px" font-style="normal" font-weight="normal" text-decoration="none" x="1000" y="240">UNREGISTERED</text><text fill="#eeeeee" stroke="none" font-family="Arial" font-size="24px" font-style="normal" font-weight="normal" text-decoration="none" x="1000" y="270">UNREGISTERED</text><text fill="#eeeeee" stroke="none" font-family="Arial" font-size="24px" font-style="normal" font-weight="normal" text-decoration="none" x="1000" y="300">UNREGISTERED</text><text fill="#eeeeee" stroke="none" font-family="Arial" font-size="24px" font-style="normal" font-weight="normal" text-decoration="none" x="1000" y="330">UNREGISTERED</text><text fill="#eeeeee" stroke="none" font-family="Arial" font-size="24px" font-style="normal" font-weight="normal" text-decoration="none" x="1000" y="360">UNREGISTERED</text><text fill="#eeeeee" stroke="none" font-family="Arial" font-size="24px" font-style="normal" font-weight="normal" text-decoration="none" x="1000" y="390">UNREGISTERED</text><text fill="#eeeeee" stroke="none" font-family="Arial" font-size="24px" font-style="normal" font-weight="normal" text-decoration="none" x="1000" y="420">UNREGISTERED</text><text fill="#eeeeee" stroke="none" font-family="Arial" font-size="24px" font-style="normal" font-weight="normal" text-decoration="none" x="1000" y="450">UNREGISTERED</text><text fill="#eeeeee" stroke="none" font-family="Arial" font-size="24px" font-style="normal" font-weight="normal" text-decoration="none" x="1000" y="480">UNREGISTERED</text><text fill="#eeeeee" stroke="none" font-family="Arial" font-size="24px" font-style="normal" font-weight="normal" text-decoration="none" x="1000" y="510">UNREGISTERED</text><text fill="#eeeeee" stroke="none" font-family="Arial" font-size="24px" font-style="normal" font-weight="normal" text-decoration="none" x="1000" y="540">UNREGISTERED</text><text fill="#eeeeee" stroke="none" font-family="Arial" font-size="24px" font-style="normal" font-weight="normal" text-decoration="none" x="1000" y="570">UNREGISTERED</text><g transform="translate(-46,-70) scale(1,1)"><rect fill="#C0C0C0" stroke="none" x="287" y="87" width="551" height="551" opacity="0.2"/></g><g transform="translate(-46,-70) scale(1,1)"><rect fill="#ffffff" stroke="none" x="280" y="80" width="551" height="551"/></g><g transform="translate(-46,-70) scale(1,1)"><path fill="none" stroke="#000000" d="M 280 80 L 831 80 L 831 631 L 280 631 L 280 80 Z Z" stroke-miterlimit="10"/></g><g transform="translate(-46,-70) scale(1,1)"><g><path fill="none" stroke="none"/><text fill="#000000" stroke="none" font-family="Arial" font-size="13px" font-style="normal" font-weight="bold" text-decoration="none" x="491.912353515625" y="99.5">Gestion des emprunts</text></g></g><g transform="translate(-46,-70) scale(1,1)"><path fill="#ffffff" stroke="none" d="M 117.96254545454545 175.28 C 117.96254545454545 162.975094656 127.60519122385455 153 139.5 153 C 151.39480877614545 153 161.03745454545455 162.975094656 161.03745454545455 175.28 C 161.03745454545455 187.584905344 151.39480877614545 197.56 139.5 197.56 C 127.60519122385455 197.56 117.96254545454545 187.584905344 117.96254545454545 175.28 Z"/></g><g transform="translate(-46,-70) scale(1,1)"><path fill="none" stroke="#000000" d="M 117.96254545454545 175.28 C 117.96254545454545 162.975094656 127.60519122385455 153 139.5 153 C 151.39480877614545 153 161.03745454545455 162.975094656 161.03745454545455 175.28 C 161.03745454545455 187.584905344 151.39480877614545 197.56 139.5 197.56 C 127.60519122385455 197.56 117.96254545454545 187.584905344 117.96254545454545 175.28 Z" stroke-miterlimit="10"/></g><g transform="translate(-46,-70) scale(1,1)"><path fill="none" stroke="#000000" d="M 139.5 197.56 L 139.5 240.44" stroke-miterlimit="10"/></g><g transform="translate(-46,-70) scale(1,1)"><path fill="none" stroke="#000000" d="M 116.69563636363635 213.64 L 162.30436363636363 213.64" stroke-miterlimit="10"/></g><g transform="translate(-46,-70) scale(1,1)"><path fill="none" stroke="#000000" d="M 139.5 240.44 L 107.82727272727271 285" stroke-miterlimit="10"/></g><g transform="translate(-46,-70) scale(1,1)"><path fill="none" stroke="#000000" d="M 139.5 240.44 L 171.1727272727273 285" stroke-miterlimit="10"/></g><g transform="translate(-46,-70) scale(1,1)"><g><path fill="none" stroke="none"/><text fill="#000000" stroke="none" font-family="Arial" font-size="13px" font-style="normal" font-weight="bold" text-decoration="none" x="117.819580078125" y="305.5">Lecteur</text></g></g><g transform="translate(-46,-70) scale(1,1)"><path fill="#ffffff" stroke="none" d="M 953.9625454545454 223.28 C 953.9625454545454 210.975094656 963.6051912238545 201 975.5 201 C 987.3948087761455 201 997.0374545454546 210.975094656 997.0374545454546 223.28 C 997.0374545454546 235.584905344 987.3948087761455 245.56 975.5 245.56 C 963.6051912238545 245.56 953.9625454545454 235.584905344 953.9625454545454 223.28 Z"/></g><g transform="translate(-46,-70) scale(1,1)"><path fill="none" stroke="#000000" d="M 953.9625454545454 223.28 C 953.9625454545454 210.975094656 963.6051912238545 201 975.5 201 C 987.3948087761455 201 997.0374545454546 210.975094656 997.0374545454546 223.28 C 997.0374545454546 235.584905344 987.3948087761455 245.56 975.5 245.56 C 963.6051912238545 245.56 953.9625454545454 235.584905344 953.9625454545454 223.28 Z" stroke-miterlimit="10"/></g><g transform="translate(-46,-70) scale(1,1)"><path fill="none" stroke="#000000" d="M 975.5 245.56 L 975.5 288.44" stroke-miterlimit="10"/></g><g transform="translate(-46,-70) scale(1,1)"><path fill="none" stroke="#000000" d="M 952.6956363636364 261.64 L 998.3043636363636 261.64" stroke-miterlimit="10"/></g><g transform="translate(-46,-70) scale(1,1)"><path fill="none" stroke="#000000" d="M 975.5 288.44 L 943.8272727272727 333" stroke-miterlimit="10"/></g><g transform="translate(-46,-70) scale(1,1)"><path fill="none" stroke="#000000" d="M 975.5 288.44 L 1007.1727272727273 333" stroke-miterlimit="10"/></g><g transform="translate(-46,-70) scale(1,1)"><g><path fill="none" stroke="none"/><text fill="#000000" stroke="none" font-family="Arial" font-size="13px" font-style="normal" font-weight="bold" text-decoration="none" x="936.477783203125" y="353.5">Bibliothécaire</text></g></g><g transform="translate(-46,-70) scale(1,1)"><path fill="#C0C0C0" stroke="none" d="M 399 144 C 399 134.6111584 457.8745488 127 530.5 127 C 603.1254512 127 662 134.6111584 662 144 C 662 153.3888416 603.1254512 161 530.5 161 C 457.8745488 161 399 153.3888416 399 144 Z" opacity="0.2"/></g><g transform="translate(-46,-70) scale(1,1)"><path fill="#ffffff" stroke="none" d="M 392 137 C 392 127.6111584 450.8745488 120 523.5 120 C 596.1254512 120 655 127.6111584 655 137 C 655 146.3888416 596.1254512 154 523.5 154 C 450.8745488 154 392 146.3888416 392 137 Z"/></g><g transform="translate(-46,-70) scale(1,1)"><path fill="none" stroke="#000000" d="M 392 137 C 392 127.6111584 450.8745488 120 523.5 120 C 596.1254512 120 655 127.6111584 655 137 C 655 146.3888416 596.1254512 154 523.5 154 C 450.8745488 154 392 146.3888416 392 137 Z" stroke-miterlimit="10"/></g><g transform="translate(-46,-70) scale(1,1)"><g><path fill="none" stroke="none"/><text fill="#000000" stroke="none" font-family="Arial" font-size="13px" font-style="normal" font-weight="bold" text-decoration="none" x="452.688720703125" y="144">Enregistre des emprunts</text></g></g><g transform="translate(-46,-70) scale(1,1)"><path fill="#C0C0C0" stroke="none" d="M 375 238.5 C 375 225.5213072 462.304464 215 570 215 C 677.695536 215 765 225.5213072 765 238.5 C 765 251.4786928 677.695536 262 570 262 C 462.304464 262 375 251.4786928 375 238.5 Z" opacity="0.2"/></g><g transform="translate(-46,-70) scale(1,1)"><path fill="#ffffff" stroke="none" d="M 368 231.5 C 368 218.5213072 455.304464 208 563 208 C 670.695536 208 758 218.5213072 758 231.5 C 758 244.4786928 670.695536 255 563 255 C 455.304464 255 368 244.4786928 368 231.5 Z"/></g><g transform="translate(-46,-70) scale(1,1)"><path fill="none" stroke="#000000" d="M 368 231.5 C 368 218.5213072 455.304464 208 563 208 C 670.695536 208 758 218.5213072 758 231.5 C 758 244.4786928 670.695536 255 563 255 C 455.304464 255 368 244.4786928 368 231.5 Z" stroke-miterlimit="10"/></g><g transform="translate(-46,-70) scale(1,1)"><g><path fill="none" stroke="none"/><text fill="#000000" stroke="none" font-family="Arial" font-size="13px" font-style="normal" font-weight="bold" text-decoration="none" x="440.36328125" y="238.5">Enregistrer des prolongements d'emprunts</text></g></g><g transform="translate(-46,-70) scale(1,1)"><path fill="#C0C0C0" stroke="none" d="M 559 336 C 559 326.6111584 628.395856 319 714 319 C 799.604144 319 869 326.6111584 869 336 C 869 345.3888416 799.604144 353 714 353 C 628.395856 353 559 345.3888416 559 336 Z" opacity="0.2"/></g><g transform="translate(-46,-70) scale(1,1)"><path fill="#ffffff" stroke="none" d="M 552 329 C 552 319.6111584 621.395856 312 707 312 C 792.604144 312 862 319.6111584 862 329 C 862 338.3888416 792.604144 346 707 346 C 621.395856 346 552 338.3888416 552 329 Z"/></g><g transform="translate(-46,-70) scale(1,1)"><path fill="none" stroke="#000000" d="M 552 329 C 552 319.6111584 621.395856 312 707 312 C 792.604144 312 862 319.6111584 862 329 C 862 338.3888416 792.604144 346 707 346 C 621.395856 346 552 338.3888416 552 329 Z" stroke-miterlimit="10"/></g><g transform="translate(-46,-70) scale(1,1)"><g><path fill="none" stroke="none"/><text fill="#000000" stroke="none" font-family="Arial" font-size="13px" font-style="normal" font-weight="bold" text-decoration="none" x="611.299560546875" y="336">Consulter l'historique d'un lecteur</text></g></g><g transform="translate(-46,-70) scale(1,1)"><path fill="#C0C0C0" stroke="none" d="M 463 400 C 463 390.6111584 501.5035072 383 549 383 C 596.4964927999999 383 635 390.6111584 635 400 C 635 409.3888416 596.4964927999999 417 549 417 C 501.5035072 417 463 409.3888416 463 400 Z" opacity="0.2"/></g><g transform="translate(-46,-70) scale(1,1)"><path fill="#ffffff" stroke="none" d="M 456 393 C 456 383.6111584 494.5035072 376 542 376 C 589.4964927999999 376 628 383.6111584 628 393 C 628 402.3888416 589.4964927999999 410 542 410 C 494.5035072 410 456 402.3888416 456 393 Z"/></g><g transform="translate(-46,-70) scale(1,1)"><path fill="none" stroke="#000000" d="M 456 393 C 456 383.6111584 494.5035072 376 542 376 C 589.4964927999999 376 628 383.6111584 628 393 C 628 402.3888416 589.4964927999999 410 542 410 C 494.5035072 410 456 402.3888416 456 393 Z" stroke-miterlimit="10"/></g><g transform="translate(-46,-70) scale(1,1)"><g><path fill="none" stroke="none"/><text fill="#000000" stroke="none" font-family="Arial" font-size="13px" font-style="normal" font-weight="bold" text-decoration="none" x="490.339599609375" y="400">Inscrire un lecteur</text></g></g><g transform="translate(-46,-70) scale(1,1)"><path fill="#C0C0C0" stroke="none" d="M 487 496 C 487 486.6111584 578.1100432 479 690.5 479 C 802.8899568 479 894 486.6111584 894 496 C 894 505.3888416 802.8899568 513 690.5 513 C 578.1100432 513 487 505.3888416 487 496 Z" opacity="0.2"/></g><g transform="translate(-46,-70) scale(1,1)"><path fill="#ffffff" stroke="none" d="M 480 489 C 480 479.6111584 571.1100432 472 683.5 472 C 795.8899568 472 887 479.6111584 887 489 C 887 498.3888416 795.8899568 506 683.5 506 C 571.1100432 506 480 498.3888416 480 489 Z"/></g><g transform="translate(-46,-70) scale(1,1)"><path fill="none" stroke="#000000" d="M 480 489 C 480 479.6111584 571.1100432 472 683.5 472 C 795.8899568 472 887 479.6111584 887 489 C 887 498.3888416 795.8899568 506 683.5 506 C 571.1100432 506 480 498.3888416 480 489 Z" stroke-miterlimit="10"/></g><g transform="translate(-46,-70) scale(1,1)"><g><path fill="none" stroke="none"/><text fill="#000000" stroke="none" font-family="Arial" font-size="13px" font-style="normal" font-weight="bold" text-decoration="none" x="553.8046875" y="496">Inscrire les nouveaux élèves comme lecteurs</text></g></g><g transform="translate(-46,-70) scale(1,1)"><path fill="none" stroke="#000000" d="M 803 311 L 911 291" stroke-miterlimit="10"/></g><g transform="translate(-46,-70) scale(1,1)"><path fill="none" stroke="#000000" d="M 224 210 L 449 155" stroke-miterlimit="10"/></g><g transform="translate(-46,-70) scale(1,1)"><path fill="none" stroke="#000000" d="M 580 155 L 911 259" stroke-miterlimit="10"/></g><g transform="translate(-46,-70) scale(1,1)"><path fill="none" stroke="#000000" d="M 367 231 L 224 231" stroke-miterlimit="10"/></g><g transform="translate(-46,-70) scale(1,1)"><path fill="none" stroke="#000000" d="M 759 254 L 911 272" stroke-miterlimit="10"/></g><g transform="translate(-46,-70) scale(1,1)"><path fill="none" stroke="#000000" d="M 629 398 L 784 408 L 872 376 L 911 339" stroke-miterlimit="10"/></g><g transform="translate(-46,-70) scale(1,1)"><path fill="none" stroke="#000000" d="M 455 381 L 304 360 L 272 216 L 466 155" stroke-miterlimit="10" stroke-dasharray="3"/></g><g transform="translate(-46,-70) scale(1,1)"><path fill="none" stroke="#000000" d="M 457.56794413905567 162.06402392110294 L 466 155 L 455.0426169043066 154.0326553384584" stroke-miterlimit="10"/></g><g transform="translate(-46,-70) scale(1,1)"><g><path fill="none" stroke="none"/><text fill="#000000" stroke="none" font-family="Arial" font-size="13px" font-style="normal" font-weight="normal" text-decoration="none" x="231.5" y="300.5">«extend»</text></g></g></g></svg>